Coordinates
version=1
nRows=13
nColumns=36
inDegrees=yes

Units are S.I. units (second, meters, Newtons, ...)
If the header above contains a line with 'inDegrees', this indicates whether rotational values are in degrees (yes) or radians (no).

endheader
time	pelvis_tilt	pelvis_list	pelvis_rotation	pelvis_tx	pelvis_ty	pelvis_tz	hip_flexion_r	hip_adduction_r	hip_rotation_r	knee_angle_r	knee_angle_r_beta	ankle_angle_r	subtalar_angle_r	mtp_angle_r	hip_flexion_l	hip_adduction_l	hip_rotation_l	knee_angle_l	knee_angle_l_beta	ankle_angle_l	subtalar_angle_l	mtp_angle_l	lumbar_extension	lumbar_bending	lumbar_rotation	arm_flex_r	arm_add_r	arm_rot_r	elbow_flex_r	pro_sup_r	arm_flex_l	arm_add_l	arm_rot_l	elbow_flex_l	pro_sup_l
      0.00000000	      0.71596264	     -0.29013035	      1.24466308	      0.33983865	      0.92951260	     -0.07673641	     -2.03230937	     -6.67274755	      1.08056440	      6.08278363	      0.10616460	      0.69203519	    -13.97570665	     -6.15135778	     -0.90317760	     -3.85127958	      3.14049452	      4.37894493	      0.07642701	      4.81541825	     -8.71517446	     -6.15135778	     -8.56407608	      0.20756354	     -1.38455434	      7.46727581	     -6.23568886	      8.56958707	     23.77935767	     77.75448372	      8.86735376	     -5.42621138	     13.92847506	     20.83820305	     69.21894332
      0.01666670	     -0.76633864	     -0.35277206	      1.84261035	      0.34155930	      0.92614628	     -0.07736887	     -1.40776016	     -6.51712738	      1.31602035	      4.72401174	      0.08244956	      3.25705727	    -11.01541261	     -6.79049788	      0.77761179	     -3.76390822	      3.90239570	      3.45391954	      0.06028227	      4.48445153	     -7.41075223	     -6.79049788	     -5.86913535	      0.26141106	     -1.69153738	      6.31994259	     -4.46202529	     -0.86921744	     23.90662574	     82.77492004	      8.44814753	     -4.09781034	      3.88154667	     20.87077186	     75.24622778
      0.03333330	     -1.15641469	      0.01387820	      1.88170343	      0.34140898	      0.92321231	     -0.07685789	     -1.37154433	     -7.09333247	      0.76703208	      4.09587610	      0.07148652	      3.55553458	    -11.20509859	     -6.89237246	      0.87647224	     -3.52961236	      3.74754311	      2.73076908	      0.04766091	      4.27165590	     -6.56368995	     -6.89237246	     -5.62871243	     -0.54708442	     -1.64481227	      6.47788251	     -3.77779299	     -1.82252603	     24.48900217	     80.53844425	      8.59827285	     -4.49421858	      3.33424638	     21.41797271	     73.52170805
      0.05000000	     -0.75913833	      0.28400899	      2.12054306	      0.34107938	      0.92452472	     -0.07715631	     -2.04546464	     -7.47223361	      0.50591271	      3.70436863	      0.06465343	      4.07113760	    -11.08802293	     -6.96341021	     -0.06255089	     -3.30972643	      4.10494499	      1.77264722	      0.03093853	      3.83264406	     -6.26846454	     -6.96341021	     -6.37822334	     -1.10736531	     -1.27975757	      6.91126755	     -3.55158821	     -2.45381481	     24.92875448	     78.81152130	      9.00856139	     -4.78267194	      3.18252307	     21.79330490	     72.17255314
      0.06666670	     -0.50248348	      0.33559907	      2.23619880	      0.33637510	      0.92268505	     -0.08109054	     -2.27652882	     -7.66874396	      0.35190749	      3.62559258	      0.06327853	      4.50131950	    -11.15515010	     -6.98267869	     -0.43592778	     -3.17685811	      4.63830342	      1.36704312	      0.02385940	      3.84365301	     -6.51239994	     -6.98267869	     -7.14141301	     -1.19439379	     -0.99606179	      7.89120893	     -3.94169698	     -2.96695038	     26.13353822	     78.82803094	     10.05654326	     -4.90557304	      3.84114406	     21.84353470	     72.09364524
      0.08333330	     -0.24626474	      0.35490338	      2.32980617	      0.33617678	      0.92367605	     -0.08134178	     -2.48787901	     -7.75965088	      0.40406772	      3.63499535	      0.06344264	      4.66682548	    -11.32267089	     -7.11723563	     -0.69304204	     -3.06278913	      5.38544374	      1.15605350	      0.02017694	      3.73532230	     -6.85944596	     -7.11723563	     -7.73520117	     -1.23132757	     -0.59030707	      9.07461234	     -4.46790870	     -2.92820601	     26.94139238	     77.10390572	     11.23617350	     -4.95884179	      5.23006904	     21.48194241	     70.40390316
      0.10000000	     -0.06771518	      0.36943622	      2.42400442	      0.33563356	      0.92137161	     -0.08084979	     -2.75487693	     -7.81149987	      0.46570259	      3.42786577	      0.05982754	      4.79520327	    -11.44128319	     -7.23701958	     -0.75671629	     -2.99160360	      5.91405508	      1.17481981	      0.02050447	      3.85697960	     -7.00664019	     -7.23701958	     -8.16333906	     -1.25767319	     -0.54335012	     10.22293718	     -4.95269333	     -2.60904960	     27.62217347	     74.75075967	     12.16396605	     -4.99732162	      5.22314737	     21.37073060	     68.34639609
      0.11666670	      0.06677947	      0.39914353	      2.39578043	      0.33551556	      0.92235248	     -0.08096638	     -2.96960034	     -7.84967543	      0.57180799	      3.22883121	      0.05635374	      4.95525096	    -11.35163825	     -7.33715567	     -0.79457148	     -2.97506588	      6.51786504	      1.18102355	      0.02061275	      3.66767383	     -7.62463516	     -7.33715567	     -8.42314062	     -1.32365600	     -0.37592362	     11.08044266	     -5.54847763	     -1.59521037	     28.05575603	     73.07837408	     12.82467300	     -4.96130544	      5.42368066	     21.29880615	     66.61471900
      0.13333330	      0.00966686	      0.43350237	      2.32203151	      0.33537959	      0.92841356	     -0.08050059	     -2.88977445	     -7.85379645	      0.74058436	      3.13766139	      0.05476252	      4.94109253	    -11.20207621	     -7.33776272	     -0.64078979	     -2.98307879	      6.71225990	      1.22374890	      0.02135845	      3.59390438	     -7.55206739	     -7.33776272	     -8.41094725	     -1.43519576	     -0.32629927	     11.63410514	     -5.67188605	     -1.62484984	     28.25262359	     73.12720639	     13.30010555	     -5.18677269	      5.34151864	     21.41280955	     66.60941972
      0.15000000	      0.27983975	      0.44336121	      2.34970716	      0.33516637	      0.92563978	     -0.08033710	     -3.22623751	     -7.82300941	      0.71103096	      2.98852626	      0.05215962	      4.91045319	    -10.87230808	     -7.44107490	     -0.89632605	     -3.01236485	      7.12514581	      1.15082910	      0.02008576	      3.29134386	     -8.09343145	     -7.44107490	     -8.77410105	     -1.48891995	     -0.49480283	     12.16835432	     -5.76380471	     -2.83777899	     28.75755235	     78.52067253	     13.77242309	     -5.17638569	      3.48013676	     21.54330165	     67.81902388
      0.16666670	      0.33308334	      0.45875465	      2.32131562	      0.33495029	      0.92568040	     -0.08027594	     -3.28277426	     -7.82691758	      0.77197854	      2.95787788	      0.05162471	      4.71792365	    -10.91105584	     -7.47053264	     -0.98073537	     -3.02579194	      7.34183049	      1.01160135	      0.01765577	      3.04616295	     -8.34973179	     -7.47053264	     -8.80492010	     -1.57897957	     -0.49325154	     12.71080682	     -6.21577694	     -2.10940806	     29.50786806	     74.19503735	     14.20943473	     -5.18196566	      3.04873680	     21.38675487	     65.64973653
      0.18333330	      0.37050834	      0.45760489	      2.39459545	      0.33489041	      0.92596271	     -0.08036636	     -3.34556952	     -7.80643037	      0.64943775	      2.90713896	      0.05073915	      4.65503210	    -10.72031380	     -7.48831359	     -1.02736351	     -3.05808197	      7.47190391	      0.91062369	      0.01589338	      3.01293966	     -8.34781684	     -7.48831359	     -8.90132092	     -1.61582802	     -0.48391841	     13.28073813	     -6.32827496	     -4.22007446	     30.31711681	     79.59549781	     14.64853972	     -5.21808674	      2.61831083	     21.44293917	     68.17680536
      0.20000000	      0.30716210	      0.42976372	      2.28329942	      0.33439454	      0.93175304	     -0.07959132	     -3.33184672	     -7.78320458	      0.64887313	      2.73663741	      0.04776333	      4.50711140	    -10.64683207	     -7.48837508	     -1.01879532	     -3.13739915	      7.52826162	      0.78827092	      0.01375792	      2.79915704	     -8.21949225	     -7.48837508	     -8.77271529	     -1.66147200	     -0.54209995	     13.93727046	     -6.43375140	     -4.26595551	     30.68387255	     79.59724853	     14.97623068	     -5.17052381	      2.61401446	     21.56624542	     68.18728594
